<?xml version="1.0" encoding="utf-8"?>
<!-- Generator: Adobe Illustrator 23.0.2, SVG Export Plug-In . SVG Version: 6.00 Build 0)  -->
<svg version="1.1" xmlns="http://www.w3.org/2000/svg" xmlns:xlink="http://www.w3.org/1999/xlink" x="0px" y="0px"
	 viewBox="0 0 24 24" style="enable-background:new 0 0 24 24;" xml:space="preserve">
<style type="text/css">
	.st0{fill:#FFFFFF;}
	.st1{fill:#C62828;}
</style>
<g id="Layer_2">
	<rect x="5.2" y="5.6" class="st0" width="12.4" height="12.4"/>
</g>
<g id="Layer_1">
	<path class="st1" d="M12,0C5.4,0,0,5.4,0,12s5.4,12,12,12s12-5.4,12-12S18.6,0,12,0z M9.6,16.8c-0.7,0-1.2-0.5-1.2-1.2V8.4
		c0-0.7,0.5-1.2,1.2-1.2c0.7,0,1.2,0.5,1.2,1.2v7.2C10.8,16.3,10.3,16.8,9.6,16.8z M14.4,16.8c-0.7,0-1.2-0.5-1.2-1.2V8.4
		c0-0.7,0.5-1.2,1.2-1.2c0.7,0,1.2,0.5,1.2,1.2v7.2C15.6,16.3,15.1,16.8,14.4,16.8z"/>
</g>
</svg>
